<svg width="48" height="48" viewBox="0 0 48 48" fill="none" xmlns="http://www.w3.org/2000/svg">
<path d="M8.25 42C6.85761 42 5.52226 41.4469 4.53769 40.4623C3.55312 39.4777 3 38.1424 3 36.75V29.25C3 28.6533 3.23705 28.081 3.65901 27.659C4.08097 27.2371 4.65326 27 5.25 27C5.84674 27 6.41903 27.2371 6.84099 27.659C7.26295 28.081 7.5 28.6533 7.5 29.25V36.75C7.5 37.164 7.836 37.5 8.25 37.5H39.75C39.9489 37.5 40.1397 37.421 40.2803 37.2803C40.421 37.1397 40.5 36.9489 40.5 36.75V29.25C40.5 28.6533 40.7371 28.081 41.159 27.659C41.581 27.2371 42.1533 27 42.75 27C43.3467 27 43.919 27.2371 44.341 27.659C44.7629 28.081 45 28.6533 45 29.25V36.75C45 38.1424 44.4469 39.4777 43.4623 40.4623C42.4777 41.4469 41.1424 42 39.75 42H8.25Z" fill="#75FBEF"/>
<path d="M21.7496 23.067V6C21.7496 5.40326 21.9866 4.83097 22.4086 4.40901C22.8305 3.98705 23.4028 3.75 23.9996 3.75C24.5963 3.75 25.1686 3.98705 25.5906 4.40901C26.0125 4.83097 26.2496 5.40326 26.2496 6V23.067L32.1596 17.16C32.3684 16.9512 32.6163 16.7856 32.8891 16.6726C33.1619 16.5596 33.4543 16.5014 33.7496 16.5014C34.0449 16.5014 34.3373 16.5596 34.6101 16.6726C34.8829 16.7856 35.1308 16.9512 35.3396 17.16C35.5484 17.3688 35.714 17.6167 35.827 17.8895C35.94 18.1623 35.9982 18.4547 35.9982 18.75C35.9982 19.0453 35.94 19.3377 35.827 19.6105C35.714 19.8833 35.5484 20.1312 35.3396 20.34L25.5896 30.09C25.3809 30.299 25.133 30.4648 24.8602 30.5779C24.5874 30.691 24.2949 30.7493 23.9996 30.7493C23.7042 30.7493 23.4118 30.691 23.1389 30.5779C22.8661 30.4648 22.6183 30.299 22.4096 30.09L12.6596 20.34C12.4508 20.1312 12.2851 19.8833 12.1721 19.6105C12.0591 19.3377 12.001 19.0453 12.001 18.75C12.001 18.4547 12.0591 18.1623 12.1721 17.8895C12.2851 17.6167 12.4508 17.3688 12.6596 17.16C12.8684 16.9512 13.1163 16.7856 13.3891 16.6726C13.6619 16.5596 13.9543 16.5014 14.2496 16.5014C14.5449 16.5014 14.8373 16.5596 15.1101 16.6726C15.3829 16.7856 15.6308 16.9512 15.8396 17.16L21.7496 23.067Z" fill="#75FBEF"/>
</svg>
